# xmcd CD database file
#
# Track frame offsets:
#	150
#	10802
#	28325
#	43800
#	59892
#	71842
#	84715
#	104222
#	121900
#	135802
#	157457
#
# Disc length: 2367 seconds
#
# Revision: 16
# Processed by: cddbd v1.5.2PL0 Copyright (c) Steve Scherf et al.
# Submitted via: CDex 1.70beta2
#
DISCID=a8093d0b
DTITLE=Garth Brooks - Ropin' The Wind
DYEAR=1991
DGENRE=Country
TTITLE0=Against The Grain ( 1991 ) - Garth Brooks
TTITLE1=Rodeo ( 1991 ) - Garth Brooks
TTITLE2=What She's Doing Now ( 1991 ) - Garth Brooks
TTITLE3=Burning Bridges ( 1991 ) - Garth Brooks
TTITLE4=Which One Of Them ( 1991 ) - Garth Brooks
TTITLE5=Papa Loved Mama ( 1991 ) - Garth Brooks
TTITLE6=Shameless ( 1991 ) - Garth Brooks
TTITLE7=Cold Shoulder ( 1991 ) - Garth Brooks
TTITLE8=We Bury The Hatchet ( 1991 ) - Garth Brooks
TTITLE9=In Lonesome Dove ( 1991 ) - Garth Brooks
TTITLE10=The River ( 1991 ) - Garth Brooks
EXTD=YEAR: 1991
EXTT0=
EXTT1=
EXTT2=
EXTT3=
EXTT4=
EXTT5=
EXTT6=
EXTT7=
EXTT8=
EXTT9=
EXTT10=
PLAYORDER=
